<!-- Generator: Adobe Illustrator 19.1.0, SVG Export Plug-In  -->
<svg version="1.1"
   xmlns="http://www.w3.org/2000/svg" xmlns:xlink="http://www.w3.org/1999/xlink" xmlns:a="http://ns.adobe.com/AdobeSVGViewerExtensions/3.0/"
   x="0px" y="0px" width="500px" height="300px" viewBox="0 0 279.8 205.2" style="enable-background:new 0 0 279.8 205.2;"
   xml:space="preserve">
<style type="text/css">
  .st0{fill:#D5D5D5;}
</style>
<defs>
</defs>
<path class="st0" d="M96.5,69.3c0,13-10.5,23.5-23.5,23.5c-13,0-23.5-10.5-23.5-23.5c0-13,10.5-23.5,23.5-23.5
  C86,45.8,96.5,56.3,96.5,69.3"/>
<path class="st0" d="M266.4,140.5L207,69.9l-54.8,67.8l-23.8-23.2L52,191.2H13.3V13.3h253.2V140.5z M266.4,191.2H125.9l5.6-7.1
  L207,90.7l58.8,70.2h0.3v30.3H266.4z M108.9,190.9l-37.7,0.3l57.6-57.9l15.2,14.9l-24.1,29.7L108.9,190.9z M0,0v204.9h56.9l0.3,0.3
  l0.3-0.3h222.2V0H0z"/>
</svg>
