<!-- Generator: Adobe Illustrator 19.1.0, SVG Export Plug-In  -->
<svg version="1.1"
   xmlns="http://www.w3.org/2000/svg" xmlns:xlink="http://www.w3.org/1999/xlink" xmlns:a="http://ns.adobe.com/AdobeSVGViewerExtensions/3.0/"
   x="0px" y="0px" width="50px" height="63.8px" viewBox="0 0 50 63.8" style="enable-background:new 0 0 50 63.8;"
   xml:space="preserve">
<style type="text/css">
  .st0{fill:#010101;}
</style>
<defs>
</defs>
<path class="st0" d="M25,62.3c-19.7,0-22.2-3.8-22.5-4.2l-0.1-7.5c2.9,0.5,12.2,1.9,22.6,1.9c10.3,0,19.2-2.2,22.1-2.9l-0.3,9
  C46.7,58.9,44.5,62.3,25,62.3z M25.2,1.5c14.2,0,19.8,0.9,22,1.6C44.4,3.7,37.7,4.7,25,4.7c-12.6,0-19.3-1-22.2-1.6
  C5.2,2.4,10.9,1.5,25.2,1.5z M47.6,35.7c-1.4,0.3-2.7,0.7-4.1,0.9l-0.4-6.7c0,0,0,0,0,0c0-0.1,0-0.1,0-0.2c0,0,0-0.1,0-0.1
  c0,0-0.1-0.1-0.1-0.1c0,0,0-0.1-0.1-0.1c0,0,0,0,0,0s0,0,0,0l-4.1-2.8c-0.1-0.1-0.3-0.1-0.5-0.1l-6.1,0.7c0-0.1-0.1-0.1-0.1-0.2
  L18.5,14.2c-0.1-0.1-0.1-0.1-0.2-0.1c-0.1-0.1-0.2-0.3-0.3-0.4c-0.3-0.1-0.6-0.1-0.9,0.1L4.5,25.2c-0.1,0.1-0.2,0.3-0.2,0.5
  l-0.4,3.8c0,0.4,0.2,0.7,0.6,0.8l8.2,8.5c-5.5-0.5-9.2-1.4-10.5-1.7L1.5,4.3C3.9,4.9,10.6,6.2,25,6.2c14.4,0,21.1-1.3,23.5-1.9
  L47.6,35.7z M17.7,40.5L17.1,41l-0.6-0.6C16.9,40.4,17.3,40.4,17.7,40.5z M17,18.9L28.6,30L19.1,39c-1.5,0-2.9-0.1-4.2-0.2l-9.1-9.3
  L17,18.9z M16.3,17.5L5.5,27.8l0.2-1.7l10.8-9.8L16.3,17.5z M29.9,30.8l0.3-0.3c0.1-0.1,0.1-0.2,0.2-0.3c0.1,0,0.1-0.1,0.2-0.1
  l0.9-1.4L38,28l2.2,1.5L29.9,30.8z M27.3,38.9l-0.6-5l1.4-1.3l13.6-1.7L42,37C36.6,38,31.7,38.6,27.3,38.9z M25.9,40.4l0.9,7.5
  l-2.6-1.8l-0.7-5.6C24.3,40.5,25.1,40.5,25.9,40.4z M23.1,37.3l2.3-2.2l0.4,3.8c-0.8,0-1.7,0.1-2.5,0.1L23.1,37.3z M21.7,38.6
  l0.1,0.4c-0.2,0-0.3,0-0.5,0L21.7,38.6z M42.5,46.5l-14.1,2.1l-1-8.3c4.5-0.3,9.4-0.8,14.7-1.9L42.5,46.5z M30.4,27.6l-0.9,1.2
  L17.9,17.6l0.2-1.6L30.4,27.6z M2.2,38.5c1.8,0.5,6,1.4,12.1,1.8l2.3,2.3c0.1,0.2,0.3,0.2,0.5,0.2c0.2,0,0.4-0.1,0.5-0.2l2.2-2.1
  c0.5,0,1,0,1.5,0c0.2,0,0.5,0,0.7,0l0.8,6.1c0,0.2,0.1,0.4,0.3,0.5l4.2,3c0,0,0.1,0,0.1,0.1c0,0,0.1,0,0.1,0c0.1,0,0.2,0,0.2,0l0,0
  c0,0,0.1,0,0.1,0l15.6-2.3c0.4-0.1,0.7-0.4,0.6-0.8l-0.5-8.9c1.3-0.3,2.6-0.6,3.9-0.9L47.2,48C45,48.6,35.7,51,25,51
  c-10.6,0-20.2-1.5-22.6-1.9L2.2,38.5z M50,3.3C50,3.3,50,3.3,50,3.3C49.9,0.6,36.5,0,25.2,0C9.8,0,0.9,1.1,0.1,3c0,0,0,0,0,0.1
  c0,0,0,0.1,0,0.1c0,0,0,0.1,0,0.1c0,0,0,0.1,0,0.1l1.1,54.9c0,0,0,0.1,0,0.1c0.1,0.3,0.5,1.7,3.8,2.9C8.9,63,15.7,63.8,25,63.8
  c21.7,0,23.3-4.2,23.4-5.1L50,3.3C50,3.4,50,3.3,50,3.3z"/>
</svg>
