<?xml version="1.0" encoding="UTF-8"?><!DOCTYPE svg PUBLIC "-//W3C//DTD SVG 1.1//EN" "http://www.w3.org/Graphics/SVG/1.1/DTD/svg11.dtd"><svg xmlns="http://www.w3.org/2000/svg"><symbol id="shape-new-window" viewBox="0 0 50.6 41.2"><path d="M13.1 28.1s1.3-9.4 16.9-9.4v9.4l20.6-13.7L30 0v9.4c-18 0-16.9 18.7-16.9 18.7zM30 37.5H3.8V11.2h13.1V7.5H0v33.8h33.8v-9.4H30v5.6z"/></symbol><symbol id="shape-placeholder" viewBox="0 0 279.8 205.2"><style>.st0{fill:#d5d5d5}</style><path class="st0" d="M96.5 69.3c0 13-10.5 23.5-23.5 23.5S49.5 82.3 49.5 69.3 60 45.8 73 45.8s23.5 10.5 23.5 23.5"/><path class="st0" d="M266.4 140.5L207 69.9l-54.8 67.8-23.8-23.2L52 191.2H13.3V13.3h253.2v127.2zm0 50.7H125.9l5.6-7.1L207 90.7l58.8 70.2h.3v30.3h.3zm-157.5-.3l-37.7.3 57.6-57.9 15.2 14.9-24.1 29.7-11 13zM0 0v204.9h56.9l.3.3.3-.3h222.2V0H0z"/></symbol><symbol id="shape-rocks-glass" viewBox="0 0 50 63.8"><style>.st0{fill:#010101}</style><path class="st0" d="M25 62.3c-19.7 0-22.2-3.8-22.5-4.2l-.1-7.5c2.9.5 12.2 1.9 22.6 1.9 10.3 0 19.2-2.2 22.1-2.9l-.3 9c-.1.3-2.3 3.7-21.8 3.7zm.2-60.8c14.2 0 19.8.9 22 1.6-2.8.6-9.5 1.6-22.2 1.6-12.6 0-19.3-1-22.2-1.6 2.4-.7 8.1-1.6 22.4-1.6zm22.4 34.2c-1.4.3-2.7.7-4.1.9l-.4-6.7v-.2-.1l-.1-.1s0-.1-.1-.1l-4.1-2.8c-.1-.1-.3-.1-.5-.1l-6.1.7c0-.1-.1-.1-.1-.2L18.5 14.2c-.1-.1-.1-.1-.2-.1-.1-.1-.2-.3-.3-.4-.3-.1-.6-.1-.9.1L4.5 25.2c-.1.1-.2.3-.2.5l-.4 3.8c0 .4.2.7.6.8l8.2 8.5c-5.5-.5-9.2-1.4-10.5-1.7L1.5 4.3c2.4.6 9.1 1.9 23.5 1.9s21.1-1.3 23.5-1.9l-.9 31.4zm-29.9 4.8l-.6.5-.6-.6c.4 0 .8 0 1.2.1zM17 18.9L28.6 30l-9.5 9c-1.5 0-2.9-.1-4.2-.2l-9.1-9.3L17 18.9zm-.7-1.4L5.5 27.8l.2-1.7 10.8-9.8-.2 1.2zm13.6 13.3l.3-.3c.1-.1.1-.2.2-.3.1 0 .1-.1.2-.1l.9-1.4L38 28l2.2 1.5-10.3 1.3zm-2.6 8.1l-.6-5 1.4-1.3 13.6-1.7.3 6.1c-5.4 1-10.3 1.6-14.7 1.9zm-1.4 1.5l.9 7.5-2.6-1.8-.7-5.6c.8 0 1.6 0 2.4-.1zm-2.8-3.1l2.3-2.2.4 3.8c-.8 0-1.7.1-2.5.1l-.2-1.7zm-1.4 1.3l.1.4h-.5l.4-.4zm20.8 7.9l-14.1 2.1-1-8.3c4.5-.3 9.4-.8 14.7-1.9l.4 8.1zM30.4 27.6l-.9 1.2-11.6-11.2.2-1.6 12.3 11.6zM2.2 38.5c1.8.5 6 1.4 12.1 1.8l2.3 2.3c.1.2.3.2.5.2s.4-.1.5-.2l2.2-2.1H22l.8 6.1c0 .2.1.4.3.5l4.2 3s.1 0 .1.1h.4l15.6-2.3c.4-.1.7-.4.6-.8l-.5-8.9 3.9-.9-.2 10.7c-2.2.6-11.5 3-22.2 3-10.6 0-20.2-1.5-22.6-1.9l-.2-10.6zM50 3.3C49.9.6 36.5 0 25.2 0 9.8 0 .9 1.1.1 3v.4l1.1 54.9v.1c.1.3.5 1.7 3.8 2.9 3.9 1.7 10.7 2.5 20 2.5 21.7 0 23.3-4.2 23.4-5.1L50 3.3c0 .1 0 0 0 0z"/></symbol></svg>